<svg width="936" height="139" viewBox="0 0 936 139" fill="none" xmlns="http://www.w3.org/2000/svg">
<path d="M176.461 1.994L166.659 43H154.363L147.809 15.566L141.197 43H128.901L119.099 1.994H129.887L135.165 31.69L142.357 1.994H153.203L160.395 31.69L165.731 1.994H176.461ZM202.4 10.288C206.112 10.288 209.051 11.5253 211.216 14C213.42 16.4747 214.522 19.8773 214.522 24.208V43H204.604V25.368C204.604 23.2027 204.024 21.5207 202.864 20.322C201.743 19.0847 200.235 18.466 198.34 18.466C196.329 18.466 194.725 19.104 193.526 20.38C192.366 21.656 191.786 23.4733 191.786 25.832V43H181.868V0.0799994H191.786V16.552C192.714 14.6187 194.087 13.0913 195.904 11.97C197.76 10.8487 199.925 10.288 202.4 10.288ZM228.745 10.636L236.517 30.472L243.767 10.636H254.729L234.545 58.428H223.641L231.239 41.782L217.667 10.636H228.745ZM281.808 10.23C285.907 10.23 289.174 11.2547 291.61 13.304C294.085 15.3533 295.632 18.06 296.25 21.424H286.97C286.7 20.1093 286.081 19.0847 285.114 18.35C284.186 17.5767 283.007 17.19 281.576 17.19C280.455 17.19 279.604 17.4413 279.024 17.944C278.444 18.408 278.154 19.0847 278.154 19.974C278.154 20.9793 278.676 21.7333 279.72 22.236C280.803 22.7387 282.485 23.2413 284.766 23.744C287.241 24.324 289.271 24.9233 290.856 25.542C292.442 26.122 293.814 27.0887 294.974 28.442C296.134 29.7953 296.714 31.6127 296.714 33.894C296.714 35.75 296.212 37.3933 295.206 38.824C294.201 40.2547 292.751 41.376 290.856 42.188C288.962 43 286.719 43.406 284.128 43.406C279.759 43.406 276.26 42.4393 273.63 40.506C271.001 38.5727 269.396 35.808 268.816 32.212H278.386C278.541 33.604 279.121 34.6673 280.126 35.402C281.17 36.1367 282.504 36.504 284.128 36.504C285.25 36.504 286.1 36.2527 286.68 35.75C287.26 35.2087 287.55 34.5127 287.55 33.662C287.55 32.5407 287.009 31.748 285.926 31.284C284.882 30.7813 283.162 30.2593 280.764 29.718C278.367 29.2153 276.395 28.674 274.848 28.094C273.302 27.514 271.968 26.586 270.846 25.31C269.725 23.9953 269.164 22.2167 269.164 19.974C269.164 17.074 270.266 14.7347 272.47 12.956C274.674 11.1387 277.787 10.23 281.808 10.23ZM320.734 34.474V43H316.268C312.479 43 309.521 42.072 307.394 40.216C305.306 38.3213 304.262 35.2087 304.262 30.878V18.988H299.912V10.636H304.262V2.69H314.18V10.636H320.676V18.988H314.18V31.052C314.18 32.328 314.432 33.2173 314.934 33.72C315.476 34.2227 316.365 34.474 317.602 34.474H320.734ZM338.805 10.23C341.279 10.23 343.406 10.7907 345.185 11.912C346.963 13.0333 348.278 14.5607 349.129 16.494V10.636H358.989V43H349.129V37.142C348.278 39.0753 346.963 40.6027 345.185 41.724C343.406 42.8453 341.279 43.406 338.805 43.406C336.137 43.406 333.739 42.7487 331.613 41.434C329.525 40.0807 327.862 38.1473 326.625 35.634C325.426 33.1207 324.827 30.182 324.827 26.818C324.827 23.4153 325.426 20.4767 326.625 18.002C327.862 15.4887 329.525 13.5747 331.613 12.26C333.739 10.9067 336.137 10.23 338.805 10.23ZM341.995 18.93C339.868 18.93 338.147 19.626 336.833 21.018C335.557 22.41 334.919 24.3433 334.919 26.818C334.919 29.2927 335.557 31.226 336.833 32.618C338.147 34.01 339.868 34.706 341.995 34.706C344.083 34.706 345.784 33.9907 347.099 32.56C348.452 31.1293 349.129 29.2153 349.129 26.818C349.129 24.382 348.452 22.468 347.099 21.076C345.784 19.6453 344.083 18.93 341.995 18.93ZM373.499 10.636L381.271 30.472L388.521 10.636H399.483L379.299 58.428H368.395L375.993 41.782L362.421 10.636H373.499ZM435.32 10.288C439.032 10.288 441.971 11.5253 444.136 14C446.34 16.4747 447.442 19.8773 447.442 24.208V43H437.524V25.368C437.524 23.2027 436.944 21.5207 435.784 20.322C434.663 19.0847 433.155 18.466 431.26 18.466C429.25 18.466 427.645 19.104 426.446 20.38C425.286 21.656 424.706 23.4733 424.706 25.832V43H414.788V0.0799994H424.706V16.552C425.634 14.6187 427.007 13.0913 428.824 11.97C430.68 10.8487 432.846 10.288 435.32 10.288ZM486.374 10.636V43H476.398V37.142C475.47 39.0367 474.078 40.5447 472.222 41.666C470.404 42.7873 468.278 43.348 465.842 43.348C462.13 43.348 459.172 42.1107 456.968 39.636C454.802 37.1613 453.72 33.7587 453.72 29.428V10.636H463.58V28.21C463.58 30.414 464.14 32.1347 465.262 33.372C466.422 34.5707 467.968 35.17 469.902 35.17C471.912 35.17 473.498 34.532 474.658 33.256C475.818 31.98 476.398 30.1627 476.398 27.804V10.636H486.374ZM513.941 10.288C517.653 10.288 520.592 11.5253 522.757 14C524.961 16.4747 526.063 19.8773 526.063 24.208V43H516.145V25.368C516.145 23.2027 515.565 21.5207 514.405 20.322C513.284 19.0847 511.776 18.466 509.881 18.466C507.87 18.466 506.266 19.104 505.067 20.38C503.907 21.656 503.327 23.4733 503.327 25.832V43H493.409V10.636H503.327V16.552C504.255 14.6187 505.628 13.0913 507.445 11.97C509.301 10.8487 511.466 10.288 513.941 10.288ZM545.1 10.23C547.575 10.23 549.702 10.7907 551.48 11.912C553.259 13.0333 554.574 14.5607 555.424 16.494V10.636H565.284V42.826C565.284 45.842 564.704 48.5487 563.544 50.946C562.384 53.382 560.606 55.3153 558.208 56.746C555.811 58.1767 552.834 58.892 549.276 58.892C544.404 58.892 540.499 57.732 537.56 55.412C534.66 53.1307 532.92 50.018 532.34 46.074H542.142C542.452 47.3887 543.148 48.4133 544.23 49.148C545.352 49.8827 546.802 50.25 548.58 50.25C550.63 50.25 552.273 49.6507 553.51 48.452C554.786 47.292 555.424 45.4167 555.424 42.826V37.142C554.574 39.0753 553.259 40.6027 551.48 41.724C549.702 42.8453 547.575 43.406 545.1 43.406C542.432 43.406 540.035 42.7487 537.908 41.434C535.82 40.0807 534.158 38.1473 532.92 35.634C531.722 33.1207 531.122 30.182 531.122 26.818C531.122 23.4153 531.722 20.4767 532.92 18.002C534.158 15.4887 535.82 13.5747 537.908 12.26C540.035 10.9067 542.432 10.23 545.1 10.23ZM548.29 18.93C546.164 18.93 544.443 19.626 543.128 21.018C541.852 22.41 541.214 24.3433 541.214 26.818C541.214 29.2927 541.852 31.226 543.128 32.618C544.443 34.01 546.164 34.706 548.29 34.706C550.378 34.706 552.08 33.9907 553.394 32.56C554.748 31.1293 555.424 29.2153 555.424 26.818C555.424 24.382 554.748 22.468 553.394 21.076C552.08 19.6453 550.378 18.93 548.29 18.93ZM582.231 16.726C583.468 14.754 585.054 13.188 586.987 12.028C588.959 10.868 591.086 10.288 593.367 10.288V20.902H590.525C587.896 20.902 585.846 21.4627 584.377 22.584C582.946 23.7053 582.231 25.6 582.231 28.268V43H572.313V10.636H582.231V16.726ZM605.2 10.636L612.972 30.472L620.222 10.636H631.184L611 58.428H600.096L607.694 41.782L594.122 10.636H605.2ZM693.817 10.636L685.523 43H674.445L668.587 21.308L662.671 43H651.593L643.299 10.636H653.217L657.509 33.952L663.541 10.636H674.097L680.303 34.01L684.595 10.636H693.817ZM718.141 10.288C721.853 10.288 724.792 11.5253 726.957 14C729.161 16.4747 730.263 19.8773 730.263 24.208V43H720.345V25.368C720.345 23.2027 719.765 21.5207 718.605 20.322C717.484 19.0847 715.976 18.466 714.081 18.466C712.07 18.466 710.466 19.104 709.267 20.38C708.107 21.656 707.527 23.4733 707.527 25.832V43H697.609V0.0799994H707.527V16.552C708.455 14.6187 709.828 13.0913 711.645 11.97C713.501 10.8487 715.666 10.288 718.141 10.288ZM767.744 25.948C767.744 26.76 767.648 27.6493 767.454 28.616H745.008C745.124 31.052 745.743 32.8113 746.864 33.894C747.986 34.938 749.416 35.46 751.156 35.46C752.626 35.46 753.844 35.0927 754.81 34.358C755.777 33.6233 756.415 32.676 756.724 31.516H767.222C766.797 33.7973 765.869 35.8467 764.438 37.664C763.008 39.4427 761.19 40.854 758.986 41.898C756.782 42.9033 754.327 43.406 751.62 43.406C748.45 43.406 745.627 42.7487 743.152 41.434C740.716 40.0807 738.802 38.1473 737.41 35.634C736.018 33.1207 735.322 30.182 735.322 26.818C735.322 23.4153 735.999 20.4767 737.352 18.002C738.744 15.4887 740.678 13.5747 743.152 12.26C745.627 10.9067 748.45 10.23 751.62 10.23C754.83 10.23 757.652 10.8873 760.088 12.202C762.524 13.5167 764.4 15.3727 765.714 17.77C767.068 20.1287 767.744 22.8547 767.744 25.948ZM757.71 24.44C757.749 22.3133 757.169 20.728 755.97 19.684C754.81 18.6013 753.36 18.06 751.62 18.06C749.803 18.06 748.295 18.6013 747.096 19.684C745.898 20.7667 745.221 22.352 745.066 24.44H757.71ZM793.647 10.288C797.359 10.288 800.297 11.5253 802.463 14C804.667 16.4747 805.769 19.8773 805.769 24.208V43H795.851V25.368C795.851 23.2027 795.271 21.5207 794.111 20.322C792.989 19.0847 791.481 18.466 789.587 18.466C787.576 18.466 785.971 19.104 784.773 20.38C783.613 21.656 783.033 23.4733 783.033 25.832V43H773.115V10.636H783.033V16.552C783.961 14.6187 785.333 13.0913 787.151 11.97C789.007 10.8487 791.172 10.288 793.647 10.288ZM11.5163 90.636L19.2883 110.472L26.5383 90.636H37.5003L17.3163 138.428H6.4123L14.0103 121.782L0.438305 90.636H11.5163ZM56.1321 90.23C59.3414 90.23 62.2027 90.9067 64.7161 92.26C67.2681 93.5747 69.2594 95.4887 70.6901 98.002C72.1594 100.515 72.8941 103.454 72.8941 106.818C72.8941 110.182 72.1594 113.121 70.6901 115.634C69.2594 118.147 67.2681 120.081 64.7161 121.434C62.2027 122.749 59.3414 123.406 56.1321 123.406C52.9227 123.406 50.0421 122.749 47.4901 121.434C44.9381 120.081 42.9274 118.147 41.4581 115.634C40.0274 113.121 39.3121 110.182 39.3121 106.818C39.3121 103.454 40.0274 100.515 41.4581 98.002C42.9274 95.4887 44.9381 93.5747 47.4901 92.26C50.0421 90.9067 52.9227 90.23 56.1321 90.23ZM56.1321 98.814C54.2374 98.814 52.6327 99.51 51.3181 100.902C50.0421 102.255 49.4041 104.227 49.4041 106.818C49.4041 109.409 50.0421 111.381 51.3181 112.734C52.6327 114.087 54.2374 114.764 56.1321 114.764C58.0267 114.764 59.6121 114.087 60.8881 112.734C62.1641 111.381 62.8021 109.409 62.8021 106.818C62.8021 104.227 62.1641 102.255 60.8881 100.902C59.6121 99.51 58.0267 98.814 56.1321 98.814ZM110.427 90.636V123H100.451V117.142C99.523 119.037 98.131 120.545 96.275 121.666C94.4577 122.787 92.331 123.348 89.895 123.348C86.183 123.348 83.225 122.111 81.021 119.636C78.8557 117.161 77.773 113.759 77.773 109.428V90.636H87.633V108.21C87.633 110.414 88.1937 112.135 89.315 113.372C90.475 114.571 92.0217 115.17 93.955 115.17C95.9657 115.17 97.551 114.532 98.711 113.256C99.871 111.98 100.451 110.163 100.451 107.804V90.636H110.427ZM143.89 90.23C148.066 90.23 151.565 91.39 154.388 93.71C157.21 95.9913 158.989 99.1427 159.724 103.164H149.226C148.916 101.772 148.278 100.689 147.312 99.916C146.345 99.1427 145.127 98.756 143.658 98.756C141.918 98.756 140.487 99.452 139.366 100.844C138.244 102.197 137.684 104.189 137.684 106.818C137.684 109.447 138.244 111.458 139.366 112.85C140.487 114.203 141.918 114.88 143.658 114.88C145.127 114.88 146.345 114.493 147.312 113.72C148.278 112.947 148.916 111.864 149.226 110.472H159.724C158.989 114.493 157.21 117.664 154.388 119.984C151.565 122.265 148.066 123.406 143.89 123.406C140.719 123.406 137.896 122.749 135.422 121.434C132.986 120.081 131.072 118.147 129.68 115.634C128.288 113.121 127.592 110.182 127.592 106.818C127.592 103.415 128.268 100.477 129.622 98.002C131.014 95.4887 132.947 93.5747 135.422 92.26C137.896 90.9067 140.719 90.23 143.89 90.23ZM177.397 90.23C179.871 90.23 181.998 90.7907 183.777 91.912C185.555 93.0333 186.87 94.5607 187.721 96.494V90.636H197.581V123H187.721V117.142C186.87 119.075 185.555 120.603 183.777 121.724C181.998 122.845 179.871 123.406 177.397 123.406C174.729 123.406 172.331 122.749 170.205 121.434C168.117 120.081 166.454 118.147 165.217 115.634C164.018 113.121 163.419 110.182 163.419 106.818C163.419 103.415 164.018 100.477 165.217 98.002C166.454 95.4887 168.117 93.5747 170.205 92.26C172.331 90.9067 174.729 90.23 177.397 90.23ZM180.587 98.93C178.46 98.93 176.739 99.626 175.425 101.018C174.149 102.41 173.511 104.343 173.511 106.818C173.511 109.293 174.149 111.226 175.425 112.618C176.739 114.01 178.46 114.706 180.587 114.706C182.675 114.706 184.376 113.991 185.691 112.56C187.044 111.129 187.721 109.215 187.721 106.818C187.721 104.382 187.044 102.468 185.691 101.076C184.376 99.6453 182.675 98.93 180.587 98.93ZM225.141 90.288C228.853 90.288 231.792 91.5253 233.957 94C236.161 96.4747 237.263 99.8773 237.263 104.208V123H227.345V105.368C227.345 103.203 226.765 101.521 225.605 100.322C224.484 99.0847 222.976 98.466 221.081 98.466C219.071 98.466 217.466 99.104 216.267 100.38C215.107 101.656 214.527 103.473 214.527 105.832V123H204.609V90.636H214.527V96.552C215.455 94.6187 216.828 93.0913 218.645 91.97C220.501 90.8487 222.667 90.288 225.141 90.288ZM270.954 90.23C274.163 90.23 277.025 90.9067 279.538 92.26C282.09 93.5747 284.081 95.4887 285.512 98.002C286.981 100.515 287.716 103.454 287.716 106.818C287.716 110.182 286.981 113.121 285.512 115.634C284.081 118.147 282.09 120.081 279.538 121.434C277.025 122.749 274.163 123.406 270.954 123.406C267.745 123.406 264.864 122.749 262.312 121.434C259.76 120.081 257.749 118.147 256.28 115.634C254.849 113.121 254.134 110.182 254.134 106.818C254.134 103.454 254.849 100.515 256.28 98.002C257.749 95.4887 259.76 93.5747 262.312 92.26C264.864 90.9067 267.745 90.23 270.954 90.23ZM270.954 98.814C269.059 98.814 267.455 99.51 266.14 100.902C264.864 102.255 264.226 104.227 264.226 106.818C264.226 109.409 264.864 111.381 266.14 112.734C267.455 114.087 269.059 114.764 270.954 114.764C272.849 114.764 274.434 114.087 275.71 112.734C276.986 111.381 277.624 109.409 277.624 106.818C277.624 104.227 276.986 102.255 275.71 100.902C274.434 99.51 272.849 98.814 270.954 98.814ZM302.977 96.726C304.214 94.754 305.8 93.188 307.733 92.028C309.705 90.868 311.832 90.288 314.113 90.288V100.902H311.271C308.642 100.902 306.592 101.463 305.123 102.584C303.692 103.705 302.977 105.6 302.977 108.268V123H293.059V90.636H302.977V96.726ZM330.76 90.23C333.235 90.23 335.361 90.7907 337.14 91.912C338.919 93.0333 340.214 94.5607 341.026 96.494V80.08H350.944V123H341.026V117.142C340.214 119.075 338.919 120.603 337.14 121.724C335.361 122.845 333.235 123.406 330.76 123.406C328.092 123.406 325.695 122.749 323.568 121.434C321.48 120.081 319.817 118.147 318.58 115.634C317.381 113.121 316.782 110.182 316.782 106.818C316.782 103.415 317.381 100.477 318.58 98.002C319.817 95.4887 321.48 93.5747 323.568 92.26C325.695 90.9067 328.092 90.23 330.76 90.23ZM333.95 98.93C331.823 98.93 330.103 99.626 328.788 101.018C327.512 102.41 326.874 104.343 326.874 106.818C326.874 109.293 327.512 111.226 328.788 112.618C330.103 114.01 331.823 114.706 333.95 114.706C336.038 114.706 337.739 113.991 339.054 112.56C340.407 111.129 341.084 109.215 341.084 106.818C341.084 104.382 340.407 102.468 339.054 101.076C337.739 99.6453 336.038 98.93 333.95 98.93ZM388.713 105.948C388.713 106.76 388.616 107.649 388.423 108.616H365.977C366.093 111.052 366.711 112.811 367.833 113.894C368.954 114.938 370.385 115.46 372.125 115.46C373.594 115.46 374.812 115.093 375.779 114.358C376.745 113.623 377.383 112.676 377.693 111.516H388.191C387.765 113.797 386.837 115.847 385.407 117.664C383.976 119.443 382.159 120.854 379.955 121.898C377.751 122.903 375.295 123.406 372.589 123.406C369.418 123.406 366.595 122.749 364.121 121.434C361.685 120.081 359.771 118.147 358.379 115.634C356.987 113.121 356.291 110.182 356.291 106.818C356.291 103.415 356.967 100.477 358.321 98.002C359.713 95.4887 361.646 93.5747 364.121 92.26C366.595 90.9067 369.418 90.23 372.589 90.23C375.798 90.23 378.621 90.8873 381.057 92.202C383.493 93.5167 385.368 95.3727 386.683 97.77C388.036 100.129 388.713 102.855 388.713 105.948ZM378.679 104.44C378.717 102.313 378.137 100.728 376.939 99.684C375.779 98.6013 374.329 98.06 372.589 98.06C370.771 98.06 369.263 98.6013 368.065 99.684C366.866 100.767 366.189 102.352 366.035 104.44H378.679ZM404.001 96.726C405.238 94.754 406.823 93.188 408.757 92.028C410.729 90.868 412.855 90.288 415.137 90.288V100.902H412.295C409.665 100.902 407.616 101.463 406.147 102.584C404.716 103.705 404.001 105.6 404.001 108.268V123H394.083V90.636H404.001V96.726ZM447.191 86.228C445.567 86.228 444.388 86.576 443.653 87.272C442.918 87.968 442.512 89.0893 442.435 90.636H448.293V98.988H442.435V123H432.517V98.988H428.631V90.636H432.517V90.288C432.517 86.2667 433.677 83.1733 435.997 81.008C438.356 78.804 441.758 77.702 446.205 77.702C447.133 77.702 447.829 77.7213 448.293 77.76V86.286L447.191 86.228ZM467.991 90.23C471.2 90.23 474.061 90.9067 476.575 92.26C479.127 93.5747 481.118 95.4887 482.549 98.002C484.018 100.515 484.753 103.454 484.753 106.818C484.753 110.182 484.018 113.121 482.549 115.634C481.118 118.147 479.127 120.081 476.575 121.434C474.061 122.749 471.2 123.406 467.991 123.406C464.781 123.406 461.901 122.749 459.349 121.434C456.797 120.081 454.786 118.147 453.317 115.634C451.886 113.121 451.171 110.182 451.171 106.818C451.171 103.454 451.886 100.515 453.317 98.002C454.786 95.4887 456.797 93.5747 459.349 92.26C461.901 90.9067 464.781 90.23 467.991 90.23ZM467.991 98.814C466.096 98.814 464.491 99.51 463.177 100.902C461.901 102.255 461.263 104.227 461.263 106.818C461.263 109.409 461.901 111.381 463.177 112.734C464.491 114.087 466.096 114.764 467.991 114.764C469.885 114.764 471.471 114.087 472.747 112.734C474.023 111.381 474.661 109.409 474.661 106.818C474.661 104.227 474.023 102.255 472.747 100.902C471.471 99.51 469.885 98.814 467.991 98.814ZM500.014 96.726C501.251 94.754 502.836 93.188 504.77 92.028C506.742 90.868 508.868 90.288 511.15 90.288V100.902H508.308C505.678 100.902 503.629 101.463 502.16 102.584C500.729 103.705 500.014 105.6 500.014 108.268V123H490.096V90.636H500.014V96.726ZM557.435 90.288C561.417 90.288 564.549 91.5253 566.831 94C569.112 96.436 570.253 99.8387 570.253 104.208V123H560.393V105.368C560.393 103.319 559.832 101.733 558.711 100.612C557.628 99.452 556.139 98.872 554.245 98.872C552.273 98.872 550.707 99.4907 549.547 100.728C548.425 101.927 547.865 103.628 547.865 105.832V123H537.947V105.368C537.947 103.319 537.405 101.733 536.323 100.612C535.24 99.452 533.751 98.872 531.857 98.872C529.885 98.872 528.319 99.4713 527.159 100.67C525.999 101.869 525.419 103.589 525.419 105.832V123H515.501V90.636H525.419V96.146C526.269 94.3287 527.565 92.898 529.305 91.854C531.083 90.81 533.152 90.288 535.511 90.288C537.985 90.288 540.17 90.868 542.065 92.028C543.959 93.1493 545.39 94.7733 546.357 96.9C547.478 94.8893 549.005 93.2847 550.939 92.086C552.911 90.8873 555.076 90.288 557.435 90.288ZM613.446 101.888C615.92 102.468 617.873 103.667 619.304 105.484C620.773 107.301 621.508 109.409 621.508 111.806C621.508 115.325 620.328 118.07 617.97 120.042C615.65 122.014 612.305 123 607.936 123H588.854V81.994H607.472C611.648 81.994 614.876 82.9027 617.158 84.72C619.439 86.5373 620.58 89.128 620.58 92.492C620.58 94.9667 619.922 97.0353 618.608 98.698C617.293 100.322 615.572 101.385 613.446 101.888ZM598.772 98.756H605.268C608.709 98.756 610.43 97.2867 610.43 94.348C610.43 91.4093 608.67 89.94 605.152 89.94H598.772V98.756ZM605.848 114.938C609.521 114.938 611.358 113.43 611.358 110.414C611.358 108.945 610.874 107.804 609.908 106.992C608.941 106.141 607.568 105.716 605.79 105.716H598.772V114.938H605.848ZM657.686 105.948C657.686 106.76 657.59 107.649 657.396 108.616H634.95C635.066 111.052 635.685 112.811 636.806 113.894C637.928 114.938 639.358 115.46 641.098 115.46C642.568 115.46 643.786 115.093 644.752 114.358C645.719 113.623 646.357 112.676 646.666 111.516H657.164C656.739 113.797 655.811 115.847 654.38 117.664C652.95 119.443 651.132 120.854 648.928 121.898C646.724 122.903 644.269 123.406 641.562 123.406C638.392 123.406 635.569 122.749 633.094 121.434C630.658 120.081 628.744 118.147 627.352 115.634C625.96 113.121 625.264 110.182 625.264 106.818C625.264 103.415 625.941 100.477 627.294 98.002C628.686 95.4887 630.62 93.5747 633.094 92.26C635.569 90.9067 638.392 90.23 641.562 90.23C644.772 90.23 647.594 90.8873 650.03 92.202C652.466 93.5167 654.342 95.3727 655.656 97.77C657.01 100.129 657.686 102.855 657.686 105.948ZM647.652 104.44C647.691 102.313 647.111 100.728 645.912 99.684C644.752 98.6013 643.302 98.06 641.562 98.06C639.745 98.06 638.237 98.6013 637.038 99.684C635.84 100.767 635.163 102.352 635.008 104.44H647.652ZM672.975 80.08V123H663.057V80.08H672.975ZM689.94 80.08V123H680.022V80.08H689.94ZM709.284 90.23C711.758 90.23 713.885 90.7907 715.664 91.912C717.442 93.0333 718.757 94.5607 719.608 96.494V90.636H729.468V123H719.608V117.142C718.757 119.075 717.442 120.603 715.664 121.724C713.885 122.845 711.758 123.406 709.284 123.406C706.616 123.406 704.218 122.749 702.092 121.434C700.004 120.081 698.341 118.147 697.104 115.634C695.905 113.121 695.306 110.182 695.306 106.818C695.306 103.415 695.905 100.477 697.104 98.002C698.341 95.4887 700.004 93.5747 702.092 92.26C704.218 90.9067 706.616 90.23 709.284 90.23ZM712.474 98.93C710.347 98.93 708.626 99.626 707.312 101.018C706.036 102.41 705.398 104.343 705.398 106.818C705.398 109.293 706.036 111.226 707.312 112.618C708.626 114.01 710.347 114.706 712.474 114.706C714.562 114.706 716.263 113.991 717.578 112.56C718.931 111.129 719.608 109.215 719.608 106.818C719.608 104.382 718.931 102.468 717.578 101.076C716.263 99.6453 714.562 98.93 712.474 98.93ZM767.796 81.356C771.662 81.356 775.162 82.2647 778.294 84.082C781.464 85.8607 783.958 88.3547 785.776 91.564C787.593 94.7347 788.502 98.3307 788.502 102.352C788.502 106.373 787.574 109.989 785.718 113.198C783.9 116.407 781.406 118.921 778.236 120.738C775.104 122.517 771.624 123.406 767.796 123.406C763.968 123.406 760.468 122.517 757.298 120.738C754.166 118.921 751.672 116.407 749.816 113.198C747.998 109.989 747.09 106.373 747.09 102.352C747.09 98.3307 747.998 94.7347 749.816 91.564C751.672 88.3547 754.166 85.8607 757.298 84.082C760.468 82.2647 763.968 81.356 767.796 81.356ZM767.796 90.578C764.548 90.578 761.957 91.6413 760.024 93.768C758.129 95.856 757.182 98.7173 757.182 102.352C757.182 105.948 758.129 108.809 760.024 110.936C761.957 113.063 764.548 114.126 767.796 114.126C771.005 114.126 773.576 113.063 775.51 110.936C777.443 108.809 778.41 105.948 778.41 102.352C778.41 98.756 777.443 95.8947 775.51 93.768C773.615 91.6413 771.044 90.578 767.796 90.578ZM814.805 90.288C818.517 90.288 821.456 91.5253 823.621 94C825.825 96.4747 826.927 99.8773 826.927 104.208V123H817.009V105.368C817.009 103.203 816.429 101.521 815.269 100.322C814.148 99.0847 812.64 98.466 810.745 98.466C808.735 98.466 807.13 99.104 805.931 100.38C804.771 101.656 804.191 103.473 804.191 105.832V123H794.273V90.636H804.191V96.552C805.119 94.6187 806.492 93.0913 808.309 91.97C810.165 90.8487 812.331 90.288 814.805 90.288ZM848.807 90.23C852.016 90.23 854.877 90.9067 857.391 92.26C859.943 93.5747 861.934 95.4887 863.365 98.002C864.834 100.515 865.569 103.454 865.569 106.818C865.569 110.182 864.834 113.121 863.365 115.634C861.934 118.147 859.943 120.081 857.391 121.434C854.877 122.749 852.016 123.406 848.807 123.406C845.597 123.406 842.717 122.749 840.165 121.434C837.613 120.081 835.602 118.147 834.133 115.634C832.702 113.121 831.987 110.182 831.987 106.818C831.987 103.454 832.702 100.515 834.133 98.002C835.602 95.4887 837.613 93.5747 840.165 92.26C842.717 90.9067 845.597 90.23 848.807 90.23ZM848.807 98.814C846.912 98.814 845.307 99.51 843.993 100.902C842.717 102.255 842.079 104.227 842.079 106.818C842.079 109.409 842.717 111.381 843.993 112.734C845.307 114.087 846.912 114.764 848.807 114.764C850.701 114.764 852.287 114.087 853.563 112.734C854.839 111.381 855.477 109.409 855.477 106.818C855.477 104.227 854.839 102.255 853.563 100.902C852.287 99.51 850.701 98.814 848.807 98.814ZM875.958 86.692C874.179 86.692 872.748 86.2087 871.666 85.242C870.583 84.2367 870.042 82.9993 870.042 81.53C870.042 80.022 870.583 78.7847 871.666 77.818C872.748 76.8127 874.179 76.31 875.958 76.31C877.736 76.31 879.167 76.8127 880.25 77.818C881.332 78.7847 881.874 80.022 881.874 81.53C881.874 82.9993 881.332 84.2367 880.25 85.242C879.167 86.2087 877.736 86.692 875.958 86.692ZM865.634 129.902H868.07C869.114 129.902 869.868 129.67 870.332 129.206C870.796 128.781 871.028 128.046 871.028 127.002V90.636H881.004V126.886C881.004 134.581 877.137 138.428 869.404 138.428H865.634V129.902ZM887.006 81.53C887.006 80.022 887.547 78.7847 888.63 77.818C889.713 76.8127 891.143 76.31 892.922 76.31C894.701 76.31 896.131 76.8127 897.214 77.818C898.297 78.7847 898.838 80.022 898.838 81.53C898.838 82.9993 898.297 84.2367 897.214 85.242C896.131 86.2087 894.701 86.692 892.922 86.692C891.143 86.692 889.713 86.2087 888.63 85.242C887.547 84.2367 887.006 82.9993 887.006 81.53ZM897.852 90.636V123H887.934V90.636H897.852ZM935.64 105.948C935.64 106.76 935.543 107.649 935.35 108.616H912.904C913.02 111.052 913.638 112.811 914.76 113.894C915.881 114.938 917.312 115.46 919.052 115.46C920.521 115.46 921.739 115.093 922.706 114.358C923.672 113.623 924.31 112.676 924.62 111.516H935.118C934.692 113.797 933.764 115.847 932.334 117.664C930.903 119.443 929.086 120.854 926.882 121.898C924.678 122.903 922.222 123.406 919.516 123.406C916.345 123.406 913.522 122.749 911.048 121.434C908.612 120.081 906.698 118.147 905.306 115.634C903.914 113.121 903.218 110.182 903.218 106.818C903.218 103.415 903.894 100.477 905.248 98.002C906.64 95.4887 908.573 93.5747 911.048 92.26C913.522 90.9067 916.345 90.23 919.516 90.23C922.725 90.23 925.548 90.8873 927.984 92.202C930.42 93.5167 932.295 95.3727 933.61 97.77C934.963 100.129 935.64 102.855 935.64 105.948ZM925.606 104.44C925.644 102.313 925.064 100.728 923.866 99.684C922.706 98.6013 921.256 98.06 919.516 98.06C917.698 98.06 916.19 98.6013 914.992 99.684C913.793 100.767 913.116 102.352 912.962 104.44H925.606Z" fill="white"/>
</svg>
